<?xml version="1.0" encoding="UTF-8" standalone="no"?>
<!-- Created with Inkscape (http://www.inkscape.org/) -->

<svg
   width="87.37355mm"
   height="52.112331mm"
   viewBox="0 0 87.37355 52.112331"
   version="1.1"
   id="svg5"
   sodipodi:docname="logo.svg"
   inkscape:version="1.1 (c68e22c387, 2021-05-23)"
   xmlns:inkscape="http://www.inkscape.org/namespaces/inkscape"
   xmlns:sodipodi="http://sodipodi.sourceforge.net/DTD/sodipodi-0.dtd"
   xmlns="http://www.w3.org/2000/svg"
   xmlns:svg="http://www.w3.org/2000/svg">
  <sodipodi:namedview
     id="namedview19"
     pagecolor="#505050"
     bordercolor="#eeeeee"
     borderopacity="1"
     inkscape:pageshadow="0"
     inkscape:pageopacity="0"
     inkscape:pagecheckerboard="0"
     inkscape:document-units="mm"
     showgrid="false"
     fit-margin-top="0"
     fit-margin-left="0"
     fit-margin-right="0"
     fit-margin-bottom="0"
     inkscape:zoom="3.0574074"
     inkscape:cx="226.17202"
     inkscape:cy="106.13568"
     inkscape:window-width="3440"
     inkscape:window-height="1377"
     inkscape:window-x="1912"
     inkscape:window-y="-8"
     inkscape:window-maximized="1"
     inkscape:current-layer="svg5" />
  <defs
     id="defs2">
    <style
       id="style2729">.cls-1{fill:#e9551d;}.cls-2{fill:#ef7c10;}.cls-3{fill:#f6a307;}.cls-4{fill:#b91d1b;}.cls-5{fill:#fff;}.cls-6{fill:#020203;}.cls-7{fill:#009035;}.cls-10,.cls-7,.cls-8,.cls-9{fill-rule:evenodd;}.cls-8{fill:#e30016;}.cls-9{fill:#b1c900;}.cls-10{fill:#009ee0;}</style>
  </defs>
  <g
     id="layer1"
     transform="translate(-58.577845,-143.55922)">
    <g
       id="g2779"
       transform="matrix(0.26458333,0,0,0.26458333,58.577845,143.55128)">
      <path
         class="cls-1"
         d="M 132.43,25 A 67.06,67.06 0 0 1 144.27,62 62.35,62.35 0 0 0 127.81,43.48 72.4,72.4 0 0 1 136.37,79.81 32.55,32.55 0 0 0 122.56,60 c 4.3,10.75 8.43,23.54 2.07,33.22 a 93.32,93.32 0 0 0 -6,-15 81.24,81.24 0 0 1 -10.92,46 59.57,59.57 0 0 0 -8.2,-29.47 126.42,126.42 0 0 1 -5.71,38.43 101.78,101.78 0 0 0 -13.14,-33.18 132.76,132.76 0 0 1 -9.84,28.19 125.3,125.3 0 0 0 -9.87,-28 c -5.64,9.15 -4.66,20.73 -3.44,31.38 A 90.38,90.38 0 0 1 45.87,79.8 34.75,34.75 0 0 0 37.8,98 C 30.16,88.1 31.31,74.3 32.8,61.87 A 61.79,61.79 0 0 0 17,81.74 C 15.67,65 23.87,49.11 31.84,34.26 A 60.07,60.07 0 0 1 14.29,50.39 269.29,269.29 0 0 0 24.79,19 23.14,23.14 0 0 1 17.28,29.82 7.78,7.78 0 0 1 16.75,31.89 C 12.16,42 0.62,55.48 0,56.66 c 0,0 7.28,-0.82 12.33,-5.51 -7.81,14.92 5,42.72 11.21,49.74 -1.18,-3.18 -0.92,-7.67 1.84,-9.67 -1.35,29.05 22.88,46 22.88,46 0,0 -3.32,-6.56 -0.52,-10.25 1.57,8 35.9,19.14 35.9,35.14 0,-16.23 36.92,-28 40.76,-50.29 0.62,0 1.57,6.59 -0.33,9 17.58,-10.33 29.18,-43.12 27.9,-52.6 2.76,3 4.37,9.78 4.37,9.78 0,0 10.59,-24.5 -0.33,-45.12 C 151.88,25 147.94,21.47 144.5,19 c 1.11,5 3.64,9.58 6.13,14.07 A 26.35,26.35 0 0 0 132.43,25 Z"
         transform="translate(0,0.03)"
         id="path2733" />
      <path
         class="cls-2"
         d="M 78.56,22 C 40.72,21.05 26.2,9.6 26.2,0 26.2,17.8 18,24 17.28,29.8 A 23.17,23.17 0 0 0 24.79,19 271.19,271.19 0 0 1 14.29,50.38 60.19,60.19 0 0 0 31.84,34.26 C 23.87,49.11 15.67,65 17,81.74 A 61.3,61.3 0 0 1 32.79,61.87 c -1.48,12.43 -2.59,26.26 5,36.23 a 34.73,34.73 0 0 1 8.15,-18.2 90.44,90.44 0 0 0 11.61,51.84 c -1.18,-10.65 -2.2,-22.23 3.44,-31.38 a 124.14,124.14 0 0 1 9.87,28 132.85,132.85 0 0 0 9.84,-28.2 101.58,101.58 0 0 1 13.15,33.15 126.41,126.41 0 0 0 5.7,-38.43 59.84,59.84 0 0 1 8.2,29.48 81.16,81.16 0 0 0 10.92,-46 95.2,95.2 0 0 1 6,15 c 6.36,-9.7 2.23,-22.49 -2.06,-33.21 A 32.71,32.71 0 0 1 136.4,80 a 72.4,72.4 0 0 0 -8.56,-36.33 62.35,62.35 0 0 1 16.46,18.49 67.08,67.08 0 0 0 -11.83,-37 26.16,26.16 0 0 1 18.19,8.07 c -2.49,-4.49 -5,-9.08 -6.13,-14.07 -5.54,-3.93 -9.93,-5.44 -12.43,-19 C 132.07,9.6 116.43,22.88 78.56,22 Z"
         transform="translate(0,0.03)"
         id="path2735" />
      <path
         class="cls-3"
         d="m 57.94,28.19 c -6.69,5.81 -7.93,18.3 -6.65,27 a 21.77,21.77 0 0 1 6.25,-10.6 c -1.67,5 0.17,10.46 2.17,15.38 2.39,5.9 5.08,11.74 9,16.72 a 35.11,35.11 0 0 1 1.37,-20.53 c 0,2.46 1.32,4.73 2.5,6.89 a 119.73,119.73 0 0 1 11.8,31.58 C 89.72,84 88,71.25 91.38,59.87 96.23,64.72 97.44,72 98.2,78.79 a 49.89,49.89 0 0 0 4.59,-28.53 29,29 0 0 1 7.9,12.74 46.23,46.23 0 0 0 -1,-23.38 c -1.48,-4.75 -4.07,-9.6 -8.63,-11.74 a 18.64,18.64 0 0 0 -5.54,-1.44 c -3.28,-0.46 -6.59,-0.72 -9.9,-1 A 64.07,64.07 0 0 0 73.39,25.34 21.66,21.66 0 0 0 62.14,29.7"
         transform="translate(0,0.03)"
         id="path2737" />
      <path
         class="cls-4"
         d="M 58.94,27.08 C 57.05,44 93.28,54.82 102.4,28.52 105.22,20.39 59.38,22.75 58.94,27.08 Z"
         transform="translate(0,0.03)"
         id="path2739" />
      <path
         class="cls-5"
         d="m 61.74,33.31 c 0,2.66 37.25,1.77 37.18,-0.66 0,-0.52 0.26,-6.13 0.3,-6.75 -10.46,0.56 -28.36,0.29 -37.51,3.08 v 4.33 z"
         transform="translate(0,0.03)"
         id="path2741" />
      <path
         class="cls-3"
         d="m 80.3,20.33 c 6.59,6.85 41.41,8.06 50.3,-2.53 -6.07,5.08 -14.14,4.56 -16.89,3.54 a 7.66,7.66 0 0 0 5.64,-5.9 C 104.17,30.75 99.71,4.49 80.5,18.52 64.63,7 54.2,23.34 42.1,17.67 l 5.15,3.67 c 0,0 -7.58,5 -16.89,-3.54 a 21.69,21.69 0 0 0 4.23,4.69 C 47.57,27 74.13,25.24 80.3,20.33 Z"
         transform="translate(0,0.03)"
         id="path2743" />
      <path
         class="cls-1"
         d="m 80.5,26.39 c 11.67,6.49 40.42,6.2 50.1,-8.56 v 0 c -8.89,10.56 -43.71,9.35 -50.3,2.5 -6.17,4.91 -32.73,6.67 -45.71,2.16 12.1,10.07 35.61,9.64 45.91,3.9 z"
         transform="translate(0,0.03)"
         id="path2745" />
      <path
         class="cls-1"
         d="m 84.46,156.63 c -6.75,3.77 -15.9,24.2 1.31,40.33 -1.31,-15.15 14.3,-23.81 -1.31,-40.33"
         transform="translate(0,0.03)"
         id="path2747" />
      <path
         class="cls-2"
         d="m 84.07,156.63 c -3.31,3.77 -6.72,24.2 1.74,40.33 -0.66,-15.15 5.9,-23.81 -1.74,-40.33"
         transform="translate(0,0.03)"
         id="path2749" />
      <path
         class="cls-6"
         d="m 64.53,153.38 c 1.34,-2.65 18.72,2.66 18.72,2.66 0,0 15.31,-6.1 18.1,-5.15 2.79,0.95 1.87,15.71 0,15.71 -1.87,0 -18.07,-8.27 -18.07,-8.27 0,0 -15.64,8.5 -17.18,8.27 -1.54,-0.23 -2.36,-11.6 -1.57,-13.22 z"
         transform="translate(0,0.03)"
         id="path2751" />
    </g>
  </g>
  <g
     style="fill-rule:evenodd"
     id="g934"
     transform="matrix(0.75308811,0,0,0.75308811,42.249569,0.10064257)">
    <path
       d="M 32.295,0 A 28.22,28.22 0 0 0 4.065,28.23 c 0,13.736 9.847,25.15 22.842,27.7 V 64 C 43.8,61.452 58.76,48.042 59.877,30.436 60.549,19.841 55.277,9.036 46.355,3.771 A 23.71,23.71 0 0 0 44.793,2.909 23.24,23.24 0 0 0 43.123,2.156 18.83,18.83 0 0 0 42.585,1.941 c -0.496,-0.184 -0.996,-0.4 -1.508,-0.54 -2.834,-0.93 -5.8,-1.404 -8.782,-1.4 z"
       fill="#00a818"
       id="path922" />
    <path
       d="m 38.113,10.45 a 3.08,3.08 0 0 0 -2.693,1.077 c -0.517,0.7 -0.84,1.358 -1.186,2.048 -1.034,2.413 -0.7,5 0.862,6.896 2.413,-0.517 4.46,-2.058 5.496,-4.472 a 5.44,5.44 0 0 0 0.538,-2.263 c 0.1,-1.83 -1.407,-3.12 -3.017,-3.286 z m -12.552,0.162 c -1.574,0.15 -3.07,1.4 -3.07,3.124 0,0.7 0.193,1.574 0.538,2.263 1.034,2.413 3.243,3.955 5.656,4.472 1.38,-1.896 1.736,-4.482 0.702,-6.896 -0.345,-0.7 -0.67,-1.37 -1.186,-1.886 a 3.03,3.03 0 0 0 -2.639,-1.077 z m -8.457,8.295 c -2.72,0.14 -3.934,3.556 -1.672,5.334 0.7,0.517 1.358,0.895 2.048,1.24 2.413,1.034 5.206,0.68 7.275,-0.7 -0.517,-2.24 -2.276,-4.3 -4.7,-5.334 -0.862,-0.345 -1.562,-0.54 -2.424,-0.54 -0.193,-0.02 -0.357,-0.01 -0.538,0 z m 26.56,10.452 a 7.88,7.88 0 0 0 -4.472,1.293 c 0.517,2.24 2.274,4.3 4.687,5.334 0.862,0.345 1.562,0.538 2.424,0.538 3.103,0.172 4.622,-3.663 2.208,-5.387 -0.7,-0.517 -1.357,-0.84 -2.046,-1.184 -0.887,-0.377 -1.838,-0.578 -2.8,-0.593 z m -23.542,0.162 c -0.948,0.017 -1.896,0.203 -2.8,0.6 -0.862,0.345 -1.53,0.724 -2.048,1.24 -2.24,1.896 -0.733,5.504 2.37,5.332 0.862,0 1.734,-0.195 2.424,-0.54 2.413,-1.034 4.127,-3.1 4.472,-5.332 -1.306,-0.87 -2.847,-1.32 -4.417,-1.293 z m 8.726,5.28 c -2.413,0.517 -4.46,2.058 -5.494,4.472 -0.345,0.7 -0.54,1.52 -0.54,2.208 -0.173,2.93 3.825,4.505 5.55,2.263 0.517,-0.7 0.84,-1.358 1.184,-2.048 1.034,-2.24 0.68,-4.827 -0.7,-6.896 z m 6.4,0.162 c -1.38,1.896 -1.734,4.482 -0.7,6.896 0.345,0.7 0.667,1.37 1.184,1.886 1.896,2.07 5.884,0.538 5.7,-2.048 0,-0.7 -0.195,-1.572 -0.54,-2.262 -1.034,-2.413 -3.243,-3.955 -5.656,-4.472 z"
       fill="#ffffff"
       id="path924" />
  </g>
</svg>
